<svg xmlns="http://www.w3.org/2000/svg" width="154" height="25" viewBox="0 0 154 25">
  <defs>
    <clipPath id="clip">
      <rect x="0" y="0" width="154" height="25"/>
    </clipPath>
  </defs>
  <g clip-path="url(#clip)">
    <path d="M0.11,8.9L17.66,0.09V7.13L0.11,15.94V8.9Z" fill="#0F547E"/>
    <path d="M0.11,16.12L17.66,24.93V17.88L0.11,9.07V16.12Z" fill="#28B2B6"/>
    <path d="M40.24,8.21L33.88,15.05L40.37,24.47H35.11L30.91,18.26L29.13,20.17V24.47H24.84V0.54H29.13V14.26L34.63,8.21H40.24Z" fill="#0F547E"/>
    <path d="M39.59,20.04C39.59,18.65 40.04,17.54 40.92,16.7C41.8,15.87 42.94,15.34 44.34,15.12L48.25,14.52C49.05,14.41 49.45,14.02 49.45,13.36C49.45,12.75 49.21,12.24 48.73,11.84C48.28,11.45 47.63,11.25 46.76,11.25C45.86,11.25 45.14,11.5 44.6,12.01C44.08,12.51 43.79,13.14 43.73,13.89L39.92,13.07C40.07,11.66 40.75,10.41 41.95,9.33C43.16,8.25 44.75,7.71 46.73,7.71C49.1,7.71 50.84,8.29 51.96,9.46C53.08,10.61 53.64,12.09 53.64,13.89V21.89C53.64,22.86 53.71,23.72 53.84,24.47H49.9C49.79,23.99 49.74,23.34 49.74,22.52C48.72,24.13 47.16,24.94 45.05,24.94C43.42,24.94 42.09,24.45 41.08,23.48C40.09,22.51 39.59,21.36 39.59,20.04ZM45.96,21.66C46.97,21.66 47.8,21.38 48.44,20.8C49.11,20.21 49.45,19.24 49.45,17.89V17.17L45.86,17.73C44.55,17.93 43.89,18.61 43.89,19.78C43.89,20.31 44.07,20.76 44.44,21.13C44.81,21.49 45.31,21.66 45.96,21.66Z" fill="#0F547E"/>
    <path d="M60.33,24.47H56.04V0.54H60.33V24.47Z" fill="#0F547E"/>
    <path d="M66.12,14.49H73.23C73.19,13.58 72.86,12.82 72.26,12.21C71.68,11.59 70.82,11.28 69.68,11.28C68.64,11.28 67.8,11.61 67.16,12.27C66.51,12.93 66.17,13.67 66.12,14.49ZM73.65,18.72L77.23,19.81C76.8,21.31 75.95,22.54 74.68,23.51C73.43,24.48 71.87,24.97 70,24.97C67.72,24.97 65.78,24.19 64.19,22.62C62.59,21.03 61.8,18.92 61.8,16.27C61.8,13.76 62.57,11.71 64.12,10.12C65.67,8.51 67.5,7.71 69.61,7.71C72.07,7.71 73.98,8.46 75.36,9.96C76.76,11.46 77.46,13.52 77.46,16.14C77.46,16.32 77.45,16.52 77.43,16.74C77.43,16.96 77.43,17.13 77.43,17.26L77.4,17.5H66.03C66.07,18.55 66.48,19.44 67.25,20.14C68.03,20.85 68.96,21.2 70.03,21.2C71.86,21.2 73.07,20.37 73.65,18.72Z" fill="#0F547E"/>
    <path d="M83.2,24.47H78.91V8.21H83.2V24.47ZM78.39,2.88C78.39,2.13 78.65,1.49 79.16,0.97C79.68,0.41 80.3,0.14 81.04,0.14C81.77,0.14 82.39,0.4 82.91,0.93C83.43,1.46 83.68,2.11 83.68,2.88C83.68,3.61 83.43,4.24 82.91,4.77C82.39,5.3 81.77,5.56 81.04,5.56C80.3,5.56 79.68,5.3 79.16,4.77C78.65,4.24 78.39,3.61 78.39,2.88Z" fill="#0F547E"/>
    <path d="M101.01,0.54V21.53C101.01,22.61 101.05,23.59 101.14,24.47H97.04C96.93,23.92 96.87,23.29 96.87,22.59C96.51,23.27 95.93,23.82 95.13,24.24C94.36,24.66 93.45,24.87 92.42,24.87C90.16,24.87 88.29,24.06 86.83,22.46C85.39,20.82 84.67,18.77 84.67,16.31C84.67,13.9 85.38,11.89 86.8,10.26C88.24,8.62 90.07,7.81 92.29,7.81C94.57,7.81 96.07,8.48 96.78,9.83V0.54H101.01ZM88.99,16.31C88.99,17.74 89.36,18.87 90.09,19.71C90.82,20.53 91.77,20.93 92.93,20.93C94.08,20.93 95.01,20.52 95.74,19.68C96.48,18.84 96.84,17.71 96.84,16.27C96.84,14.86 96.48,13.76 95.74,12.97C95.01,12.15 94.08,11.74 92.93,11.74C91.79,11.74 90.85,12.15 90.09,12.97C89.36,13.78 88.99,14.9 88.99,16.31Z" fill="#0F547E"/>
    <path d="M107.99,19.74C108.79,20.56 109.75,20.97 110.87,20.97C111.99,20.97 112.93,20.56 113.71,19.74C114.51,18.93 114.9,17.79 114.9,16.34C114.9,14.88 114.51,13.75 113.71,12.93C112.93,12.12 111.99,11.71 110.87,11.71C109.75,11.71 108.79,12.12 107.99,12.93C107.22,13.75 106.83,14.88 106.83,16.34C106.83,17.79 107.22,18.93 107.99,19.74ZM104.89,10.16C106.49,8.53 108.48,7.71 110.87,7.71C113.26,7.71 115.24,8.53 116.81,10.16C118.4,11.79 119.2,13.85 119.2,16.34C119.2,18.83 118.4,20.89 116.81,22.52C115.24,24.15 113.26,24.97 110.87,24.97C108.48,24.97 106.49,24.15 104.89,22.52C103.32,20.89 102.54,18.83 102.54,16.34C102.54,13.85 103.32,11.79 104.89,10.16Z" fill="#0F547E"/>
    <path d="M132.53,11.97H126.16V24.47H121.84V11.97H119.19V8.21H121.84V6.35C121.84,4.52 122.35,3.06 123.39,1.96C124.44,0.85 125.85,0.3 127.62,0.3C128.57,0.3 129.27,0.41 129.75,0.63V4.34C129.38,4.23 128.93,4.17 128.39,4.17C127.81,4.17 127.29,4.35 126.84,4.7C126.39,5.03 126.16,5.6 126.16,6.42V8.21H136.79V24.47H132.53V11.97ZM132.79,4.77C132.27,4.24 132.01,3.6 132.01,2.85C132.01,2.1 132.27,1.46 132.79,0.93C133.3,0.38 133.93,0.11 134.66,0.11C135.39,0.11 136.01,0.38 136.53,0.93C137.05,1.46 137.31,2.1 137.31,2.85C137.31,3.6 137.05,4.24 136.53,4.77C136.01,5.27 135.39,5.53 134.66,5.53C133.93,5.53 133.3,5.27 132.79,4.77Z" fill="#28B2B6"/>
    <path d="M143.76,15.12V24.47H139.47V8.21H143.63V10.22C144.09,9.43 144.73,8.82 145.57,8.4C146.41,7.99 147.29,7.78 148.22,7.78C150.09,7.78 151.51,8.38 152.48,9.59C153.47,10.78 153.97,12.33 153.97,14.22V24.47H149.67V14.98C149.67,14.01 149.42,13.23 148.93,12.64C148.46,12.04 147.72,11.74 146.73,11.74C145.83,11.74 145.11,12.06 144.57,12.7C144.03,13.34 143.76,14.15 143.76,15.12Z" fill="#28B2B6"/>
  </g>
</svg>
